<?xml version="1.0" standalone="no"?>
<!DOCTYPE svg PUBLIC "-//W3C//DTD SVG 20010904//EN"
 "http://www.w3.org/TR/2001/REC-SVG-20010904/DTD/svg10.dtd">
<svg version="1.0" xmlns="http://www.w3.org/2000/svg"
 width="105.000000pt" height="105.000000pt" viewBox="0 0 105.000000 105.000000"
 preserveAspectRatio="xMidYMid meet">
<metadata>
Created by potrace 1.14, written by Peter Selinger 2001-2017
</metadata>
<g transform="translate(0.000000,105.000000) scale(0.100000,-0.100000)"
fill="#000000" stroke="none">
<path d="M169 940 c-2 -172 -1 -332 3 -335 1 -2 32 -5 68 -7 l65 -3 5 170 5
170 70 -172 70 -173 71 0 72 0 53 133 c29 72 61 150 70 172 l18 40 0 -160 c0
-88 0 -167 0 -175 1 -12 16 -16 71 -18 l70 -3 0 214 0 215 -112 1 c-61 1 -114
4 -118 6 -15 9 -28 -19 -76 -165 l-51 -155 -12 45 c-30 114 -85 272 -95 275
-6 2 -64 5 -128 7 l-118 3 -1 -85z"/>
<path d="M288 484 c-61 -19 -87 -52 -83 -106 3 -55 18 -65 165 -124 70 -27
127 -56 136 -68 20 -29 18 -62 -6 -79 -24 -17 -107 -21 -143 -8 -23 9 -27 16
-27 50 0 22 -5 41 -12 43 -11 4 -89 3 -109 -1 -10 -2 2 -95 14 -109 28 -34 73
-46 180 -48 161 -4 233 28 240 107 8 79 -21 107 -158 154 -161 55 -169 60
-160 106 6 32 9 33 85 36 63 2 72 0 85 -20 8 -13 13 -33 10 -45 -4 -21 0 -22
61 -22 l64 0 0 43 c0 55 -15 74 -70 91 -60 18 -213 18 -272 0z"/>
<path d="M734 478 c-4 -5 -6 -105 -6 -222 l1 -211 60 -3 61 -3 0 224 0 224
-55 1 c-30 0 -58 -4 -61 -10z"/>
</g>
</svg>
