<?xml version="1.0" encoding="utf-8"?>
<!-- Generator: Adobe Illustrator 27.0.0, SVG Export Plug-In . SVG Version: 6.00 Build 0)  -->
<svg version="1.1" id="sun" xmlns="http://www.w3.org/2000/svg" xmlns:xlink="http://www.w3.org/1999/xlink" x="0px" y="0px"
	 viewBox="0 0 24 24" style="enable-background:new 0 0 24 24;" xml:space="preserve">
<style type="text/css">
	.st0{fill:#2727FF;}
</style>
<path class="st0" d="M5.6,17l-0.7,0.7c-0.4,0.4-0.4,1,0,1.4c0.4,0.4,1,0.4,1.4,0L7,18.4C7.4,18,7.4,17.4,6.9,17
	C6.6,16.7,6,16.7,5.6,17z M5,12c0-0.6-0.4-1-1-1H3c-0.6,0-1,0.4-1,1s0.4,1,1,1h1C4.6,13,5,12.6,5,12z M12,5c0.6,0,1-0.4,1-1V3
	c0-0.6-0.4-1-1-1s-1,0.4-1,1v1C11,4.6,11.4,5,12,5z M5.6,7.1c0.2,0.2,0.4,0.3,0.7,0.3c0.3,0,0.5-0.1,0.7-0.3c0.4-0.4,0.4-1,0-1.4
	L6.3,4.9C5.9,4.6,5.3,4.6,4.9,5C4.6,5.4,4.6,6,4.9,6.3L5.6,7.1z M17.6,7.3c0.3,0,0.5-0.1,0.7-0.3L19,6.3c0.4-0.4,0.5-1,0.1-1.4
	c-0.4-0.4-1-0.5-1.4-0.1c0,0-0.1,0.1-0.1,0.1L17,5.6c-0.4,0.4-0.4,1,0,1.4C17.2,7.2,17.4,7.3,17.6,7.3L17.6,7.3z M21,11h-1
	c-0.6,0-1,0.4-1,1s0.4,1,1,1h1c0.6,0,1-0.4,1-1S21.6,11,21,11z M12,19c-0.6,0-1,0.4-1,1v1c0,0.6,0.4,1,1,1s1-0.4,1-1v-1
	C13,19.4,12.6,19,12,19z M18.4,17c-0.5-0.3-1.1-0.1-1.4,0.4c-0.2,0.3-0.2,0.7,0,1l0.7,0.7c0.4,0.4,1,0.4,1.4,0c0.4-0.4,0.4-1,0-1.4
	L18.4,17z M12,6.5C9,6.5,6.5,9,6.5,12S9,17.5,12,17.5s5.5-2.5,5.5-5.5C17.5,9,15,6.5,12,6.5z M12,15.5c-1.9,0-3.5-1.6-3.5-3.5
	s1.6-3.5,3.5-3.5s3.5,1.6,3.5,3.5S13.9,15.5,12,15.5z"/>
</svg>
